<?xml version="1.0" standalone="no"?>
<!DOCTYPE svg PUBLIC "-//W3C//DTD SVG 20010904//EN"
 "http://www.w3.org/TR/2001/REC-SVG-20010904/DTD/svg10.dtd">
<svg version="1.0" xmlns="http://www.w3.org/2000/svg"
 width="175" height="150" viewBox="0 0 1280.000000 720.000000"
 preserveAspectRatio="xMidYMid meet">

<g transform="translate(0.000000,720.000000) scale(0.100000,-0.100000)"
fill="#000000" stroke="none">
<path d="M0 6160 l0 -1040 245 0 245 0 2 793 3 792 793 3 792 2 0 245 0 245
-1040 0 -1040 0 0 -1040z"/>
<path d="M10720 6955 l0 -245 793 -2 792 -3 3 -792 2 -793 245 0 245 0 0 1040
0 1040 -1040 0 -1040 0 0 -245z"/>
<path d="M7278 5526 c-60 -22 -88 -45 -109 -89 -37 -82 -20 -168 44 -224 91
-79 262 -55 321 46 24 42 26 133 3 177 -45 87 -158 126 -259 90z"/>
<path d="M8830 4700 l0 -760 185 0 185 0 0 133 0 133 51 57 c28 31 54 55 58
52 5 -2 55 -88 112 -190 l104 -185 203 0 203 0 -34 53 c-18 28 -106 165 -195
304 -89 139 -165 258 -167 265 -3 8 74 109 180 235 102 122 185 224 185 228 0
3 -91 4 -202 3 l-202 -3 -141 -182 c-77 -100 -143 -182 -147 -182 -5 -1 -8
179 -8 399 l0 400 -185 0 -185 0 0 -760z"/>
<path d="M5492 5343 c-5 -10 -17 -84 -27 -165 l-19 -146 -80 -9 -81 -8 -3
-137 -3 -138 70 0 69 0 5 -247 c3 -137 10 -268 16 -292 55 -211 225 -315 468
-284 49 6 106 18 128 25 47 16 46 12 13 166 l-22 102 -76 0 c-68 0 -80 3 -104
25 -14 13 -31 36 -36 50 -6 15 -10 123 -10 240 l0 214 123 3 122 3 0 140 0
140 -122 3 -123 3 -2 162 -3 162 -147 3 c-132 2 -148 1 -156 -15z"/>
<path d="M3010 4646 l0 -706 190 0 190 0 0 219 0 218 133 6 c337 14 519 139
572 392 46 220 -39 418 -217 508 -113 56 -144 60 -520 65 l-348 4 0 -706z
m620 393 c47 -16 87 -55 101 -97 17 -51 5 -137 -24 -182 -38 -56 -84 -73 -209
-78 l-108 -4 0 184 c0 102 3 188 8 192 10 12 190 0 232 -15z"/>
<path d="M4595 5046 c-102 -16 -169 -39 -270 -89 -44 -21 -82 -41 -84 -43 -3
-3 114 -221 124 -232 2 -2 45 13 97 34 151 60 269 57 313 -10 31 -47 19 -59
-75 -72 -274 -41 -435 -134 -480 -280 -23 -77 -25 -108 -6 -185 31 -135 120
-222 254 -250 102 -21 226 15 323 93 45 36 53 32 64 -34 l7 -38 155 0 154 0
-4 383 c-3 353 -5 387 -24 444 -62 187 -182 274 -392 288 -42 2 -112 -2 -156
-9z m198 -706 c-2 -69 -4 -76 -30 -98 -69 -55 -168 -52 -193 7 -28 68 27 128
145 157 79 20 79 19 78 -66z"/>
<path d="M6830 5044 c-82 -22 -174 -93 -218 -166 -9 -16 -19 -28 -23 -28 -7 0
-14 35 -25 123 l-6 57 -154 0 -154 0 0 -545 0 -545 185 0 185 0 0 299 0 299
28 53 c52 99 143 147 257 134 l62 -6 33 151 c23 105 30 154 23 161 -13 13 -78
29 -113 28 -14 0 -50 -7 -80 -15z"/>
<path d="M8245 5053 c-259 -36 -455 -216 -495 -455 -16 -93 -7 -232 19 -319
86 -278 398 -431 691 -340 78 24 173 80 178 103 3 18 -126 231 -137 225 -112
-61 -193 -67 -267 -21 -100 62 -139 235 -85 376 16 42 79 106 117 118 52 18
119 15 164 -5 22 -10 42 -16 44 -14 2 2 40 53 85 113 l81 109 -32 24 c-92 68
-239 103 -363 86z"/>
<path d="M7165 5018 c-3 -7 -4 -251 -3 -543 l3 -530 188 -3 187 -2 0 545 0
545 -185 0 c-139 0 -187 -3 -190 -12z"/>
<path d="M1770 3153 c-1 -449 -8 -585 -36 -631 -52 -90 -201 -90 -277 -1 -19
21 -37 39 -40 39 -12 0 -227 -151 -227 -160 0 -23 89 -136 134 -169 67 -51 98
-65 177 -85 170 -42 373 5 486 112 54 52 91 111 122 197 l26 70 3 523 3 522
-186 0 -185 0 0 -417z"/>
<path d="M4257 3259 c-51 -12 -123 -50 -182 -98 -27 -22 -52 -38 -56 -36 -3 3
-12 32 -18 65 l-12 61 -152 -3 -152 -3 -3 -542 -2 -543 190 0 190 0 2 362 3
361 49 34 c41 28 57 33 105 33 113 0 124 -44 119 -504 l-3 -286 188 0 189 0
-4 403 c-4 337 -7 411 -21 460 -35 120 -108 205 -201 232 -54 16 -169 18 -229
4z"/>
<path d="M5236 3254 c-131 -32 -246 -124 -284 -228 -55 -146 -27 -290 75 -391
l46 -45 -42 -41 c-103 -100 -107 -239 -10 -329 l30 -27 -53 -39 c-69 -51 -98
-103 -98 -174 1 -137 96 -220 294 -255 112 -19 215 -19 336 0 171 28 262 67
351 152 87 82 121 182 99 286 -15 73 -57 127 -127 164 -84 45 -144 55 -369 62
-179 5 -204 8 -223 25 -23 21 -27 47 -10 77 10 19 17 20 82 14 86 -8 204 7
281 35 75 28 157 104 186 172 25 57 33 173 16 236 l-8 32 81 0 82 0 -3 133 -3
132 -220 7 c-121 4 -272 9 -335 12 -84 4 -131 1 -174 -10z m216 -246 c31 -15
51 -69 52 -134 0 -81 -25 -124 -82 -144 -40 -14 -46 -13 -80 5 -40 22 -61 57
-69 116 -7 47 13 122 37 144 36 32 95 38 142 13z m5 -907 c127 -1 160 -10 169
-45 9 -36 -12 -65 -64 -89 -60 -27 -236 -30 -293 -4 -63 28 -81 73 -50 123 18
30 20 31 72 23 30 -4 104 -8 166 -8z"/>
<path d="M6705 3256 c-60 -19 -97 -40 -156 -91 -29 -25 -56 -45 -60 -45 -4 0
-12 29 -19 65 l-12 66 -152 -3 -151 -3 -3 -542 -2 -543 190 0 190 0 2 363 3
362 49 33 c36 24 59 32 91 32 58 0 73 -7 93 -44 15 -27 17 -74 20 -388 l3
-358 185 0 184 0 0 354 0 354 36 32 c44 38 73 50 125 50 100 0 102 -9 107
-437 l4 -353 184 0 185 0 -3 408 c-4 358 -6 414 -22 462 -57 174 -162 247
-341 238 -100 -5 -169 -35 -250 -110 -30 -27 -59 -48 -64 -46 -6 1 -20 19 -33
38 -28 41 -105 95 -156 110 -50 14 -178 11 -227 -4z"/>
<path d="M8361 3260 c-100 -21 -311 -111 -311 -132 0 -5 27 -60 61 -123 l61
-113 62 29 c69 32 165 59 211 59 76 0 141 -39 147 -89 3 -23 -2 -25 -98 -41
-351 -60 -496 -182 -482 -405 9 -130 75 -231 187 -284 47 -22 70 -26 141 -26
74 0 93 4 150 31 36 17 82 45 104 63 42 33 56 38 56 19 0 -7 5 -30 11 -50 l10
-38 154 0 155 0 0 283 c0 492 -20 598 -134 713 -87 87 -142 106 -311 110 -71
2 -150 -1 -174 -6z m239 -694 c0 -72 -1 -75 -35 -105 -41 -36 -72 -46 -122
-38 -50 9 -73 33 -73 78 0 58 66 105 185 132 45 10 45 10 45 -67z"/>
<path d="M9797 3259 c-51 -12 -123 -50 -182 -98 -27 -22 -52 -38 -56 -36 -3 3
-12 32 -18 65 l-12 61 -152 -3 -152 -3 -3 -542 -2 -543 190 0 190 0 2 362 3
361 49 34 c41 28 57 33 105 33 113 0 124 -44 119 -504 l-3 -286 188 0 189 0
-5 403 c-3 258 -9 418 -16 446 -33 124 -111 218 -204 246 -55 16 -169 18 -230
4z"/>
<path d="M11050 3252 c-64 -21 -131 -61 -177 -105 -18 -17 -36 -28 -39 -24 -4
3 -12 32 -18 64 l-12 58 -152 3 -152 3 0 -546 0 -545 185 0 185 0 0 354 0 354
36 32 c45 39 73 50 129 50 58 0 73 -7 93 -44 15 -27 17 -74 20 -388 l3 -358
185 0 184 0 0 379 c0 405 -6 474 -51 564 -27 54 -84 113 -134 140 -57 30 -208
34 -285 9z"/>
<path d="M2410 2881 c0 -283 3 -387 15 -446 37 -194 131 -289 300 -302 117 -9
228 33 310 116 40 42 65 52 65 26 0 -7 5 -37 11 -65 l11 -50 154 0 154 0 -2
543 -3 542 -185 0 -185 0 -5 -357 -5 -356 -25 -27 c-45 -49 -132 -70 -180 -45
-43 23 -45 40 -50 420 l-5 365 -187 3 -188 2 0 -369z"/>
<path d="M0 1015 l0 -1015 1040 0 1040 0 0 220 0 220 -792 2 -793 3 -3 793 -2
792 -245 0 -245 0 0 -1015z"/>
<path d="M12308 1238 l-3 -793 -792 -3 -793 -2 0 -220 0 -220 1040 0 1040 0 0
1015 0 1015 -245 0 -245 0 -2 -792z"/>
</g>
</svg>
